<mxfile host="Electron" agent="Mozilla/5.0 (Macintosh; Intel Mac OS X 10_15_7) AppleWebKit/537.36 (KHTML, like Gecko) draw.io/24.7.5 Chrome/126.0.6478.183 Electron/31.3.0 Safari/537.36" version="24.7.5">
  <diagram name="Page-1" id="iG26p6dSQ3UpytRVeaE8">
    <mxGraphModel dx="1114" dy="785" grid="1" gridSize="10" guides="1" tooltips="1" connect="1" arrows="1" fold="1" page="1" pageScale="1" pageWidth="827" pageHeight="1169" math="0" shadow="0">
      <root>
        <mxCell id="0" />
        <mxCell id="1" parent="0" />
        <mxCell id="eBXUAuUugh3PLvMWLY1K-13" value="" style="rounded=1;whiteSpace=wrap;html=1;strokeColor=#3D60B3;" vertex="1" parent="1">
          <mxGeometry x="210" y="130" width="630" height="380" as="geometry" />
        </mxCell>
        <mxCell id="eBXUAuUugh3PLvMWLY1K-25" style="edgeStyle=orthogonalEdgeStyle;rounded=0;orthogonalLoop=1;jettySize=auto;html=1;entryX=0;entryY=0.5;entryDx=0;entryDy=0;fontColor=#3D60B3;" edge="1" parent="1" source="eBXUAuUugh3PLvMWLY1K-2" target="eBXUAuUugh3PLvMWLY1K-20">
          <mxGeometry relative="1" as="geometry" />
        </mxCell>
        <mxCell id="eBXUAuUugh3PLvMWLY1K-26" value="&lt;b&gt;&lt;font color=&quot;#3d60b3&quot;&gt;ACCESS&amp;nbsp; &amp;nbsp; &amp;nbsp; ALLOWED&lt;/font&gt;&lt;/b&gt;" style="edgeLabel;html=1;align=center;verticalAlign=middle;resizable=0;points=[];" vertex="1" connectable="0" parent="eBXUAuUugh3PLvMWLY1K-25">
          <mxGeometry x="0.0182" y="-1" relative="1" as="geometry">
            <mxPoint x="-1" y="-13" as="offset" />
          </mxGeometry>
        </mxCell>
        <mxCell id="eBXUAuUugh3PLvMWLY1K-2" value="" style="sketch=0;outlineConnect=0;fontColor=#232F3E;gradientColor=none;fillColor=#3D60B3;strokeColor=none;dashed=0;verticalLabelPosition=bottom;verticalAlign=top;align=center;html=1;fontSize=12;fontStyle=0;aspect=fixed;pointerEvents=1;shape=mxgraph.aws4.mfa_token;" vertex="1" parent="1">
          <mxGeometry x="260" y="287" width="80" height="80" as="geometry" />
        </mxCell>
        <mxCell id="eBXUAuUugh3PLvMWLY1K-19" style="rounded=0;orthogonalLoop=1;jettySize=auto;html=1;dashed=1;endArrow=none;endFill=0;" edge="1" parent="1" source="eBXUAuUugh3PLvMWLY1K-9" target="eBXUAuUugh3PLvMWLY1K-2">
          <mxGeometry relative="1" as="geometry" />
        </mxCell>
        <mxCell id="eBXUAuUugh3PLvMWLY1K-9" value="" style="image;aspect=fixed;html=1;points=[];align=center;fontSize=12;image=img/lib/azure2/compute/Virtual_Machine.svg;" vertex="1" parent="1">
          <mxGeometry x="60" y="367" width="69" height="64" as="geometry" />
        </mxCell>
        <mxCell id="eBXUAuUugh3PLvMWLY1K-18" style="rounded=0;orthogonalLoop=1;jettySize=auto;html=1;dashed=1;endArrow=none;endFill=0;" edge="1" parent="1" source="eBXUAuUugh3PLvMWLY1K-10" target="eBXUAuUugh3PLvMWLY1K-2">
          <mxGeometry relative="1" as="geometry" />
        </mxCell>
        <mxCell id="eBXUAuUugh3PLvMWLY1K-10" value="" style="image;aspect=fixed;html=1;points=[];align=center;fontSize=12;image=img/lib/azure2/general/Mobile.svg;" vertex="1" parent="1">
          <mxGeometry x="74.5" y="220" width="40" height="67" as="geometry" />
        </mxCell>
        <mxCell id="eBXUAuUugh3PLvMWLY1K-12" value="" style="endArrow=none;html=1;rounded=0;strokeWidth=4;strokeColor=#3d60b3;" edge="1" parent="1">
          <mxGeometry width="50" height="50" relative="1" as="geometry">
            <mxPoint x="402" y="480" as="sourcePoint" />
            <mxPoint x="402" y="160" as="targetPoint" />
          </mxGeometry>
        </mxCell>
        <mxCell id="eBXUAuUugh3PLvMWLY1K-20" value="" style="rounded=1;whiteSpace=wrap;html=1;strokeColor=#3D60B3;" vertex="1" parent="1">
          <mxGeometry x="470" y="237" width="330" height="180" as="geometry" />
        </mxCell>
        <mxCell id="eBXUAuUugh3PLvMWLY1K-1" value="" style="image;aspect=fixed;html=1;points=[];align=center;fontSize=12;image=img/lib/azure2/other/Windows_Virtual_Desktop.svg;" vertex="1" parent="1">
          <mxGeometry x="450" y="220" width="58" height="58" as="geometry" />
        </mxCell>
        <mxCell id="eBXUAuUugh3PLvMWLY1K-21" value="HOST POOL AVD" style="text;html=1;align=center;verticalAlign=middle;whiteSpace=wrap;rounded=0;fontColor=#3D60B3;fontStyle=1" vertex="1" parent="1">
          <mxGeometry x="650" y="390" width="110" height="30" as="geometry" />
        </mxCell>
        <mxCell id="eBXUAuUugh3PLvMWLY1K-23" value="" style="image;aspect=fixed;html=1;points=[];align=center;fontSize=12;image=img/lib/azure2/management_governance/Managed_Desktop.svg;" vertex="1" parent="1">
          <mxGeometry x="540" y="303.8" width="68" height="63.2" as="geometry" />
        </mxCell>
        <mxCell id="eBXUAuUugh3PLvMWLY1K-24" value="" style="image;aspect=fixed;html=1;points=[];align=center;fontSize=12;image=img/lib/azure2/management_governance/Managed_Desktop.svg;" vertex="1" parent="1">
          <mxGeometry x="660" y="303.8" width="68" height="63.2" as="geometry" />
        </mxCell>
        <mxCell id="eBXUAuUugh3PLvMWLY1K-28" value="" style="shape=image;aspect=fixed;image=data:image/png,iVBORw0KGgoAAAANSUhEUgAAAgAAAAIACAMAAADDpiTIAAAAmVBMVEVHcEwyr+oxrekzsusupeYLW6YJW6UIY7MZf8YOeMoMV58EcsoAeNQLWKEGZ7kHZLQIYbANVZ0OUpg8y/QKW6Y1uO04wPA2vO8rnOM5xPIJX60xrekOT5MpleEqmeI0tewsn+Q6yPMzsusupOYPTI4yr+oKXakvpuYvqOcwqugokt8OSIctouUNQ34Adc4AccgAbcEMPXIih75SJsYIAAAADHRSTlMAeqbSS3mpTiOV1Mnnz+xxAABKCElEQVR42uyb227bMAyGs3ZpgwK9GIhuIDCg4yBswAhdqO//cEN0CCfZ3WxZTnbxf7Ilxbc8U8oBAAAAAAAAAAAAAAAAAAAAAAAAAAAAAAAAAAAAAAAAAAAAAAAAAAAAAAAAAABgK6fjw8OTqrqvz2+/Xl8ir7eDhUVEmIWZ5Tzf3999+HgAO0lf1XuvPhK8f/5G/wFCE+6gA+N5fFL1qt6r16wFIbg3ujFS7wr84QCG8qBeVb1m8SeCD+4n3RAhksvIk0hUhXt4gYE8asRUIBNCCLdzAhLfhAiJSFyKCsAJDONo4q9cQIgq8InpBohNaYhk+0+/iOj+AAbJ3/BxmAc4a4D7TNdGbCNlSbJPkBA0YKT8nRb+TALP75mvQlenhH3K9i4RCwPwAaN4dCZ+f1EB8wBnnul6SHlNB6SG8kNEdwewkZPTNDK+yQJC5O160rfJDN+oPiATHMBDJX5zAI0P+Hy1sC9t8jdr/5fpdABbA4BT12YBtQfYPwiY1duuknSB6g8IAlt5clED2hCg3jca8H3XdK/2/kJkZX9D+4ngAjY6gCj/fyYB4cf+nV6xTZT9vPQb4AIGZABO2yxgxgUw7YOkx9q9Juh5qPl1AP04dWeS/J0m/KwLeNv9qE9MDd7XgVZBGIXABo7OaeMDfHpN/kUD3PjIX1bbJ0iWwXFGN2hbBMiPVQK+DQKRXSrBWgf+BskERho4pgmU5D8pBDNhvxiQ3X1ZjaU6wPERxID+GiCiruoG+vy0LsDt1fQz6S6E08QUNzgR6OYpC74pBIvw1ZKAyBcaiUmf4lgFX1YWQTewk1M0//K2zQD1ftc6wA58/ukBaOr3o/kz6oBNHHMB4CwLNPnPZIE6vP5f5f1bLSgLow7ojgAZdSb/aSsg+NExwI76elw/X8yf02+cCPVxMtu3dtDc3cAQxsQAsSVZPnWEfSYuSxwswqgDOiOAkZVg9mqg6YAbZPorhc9xmO0Liw1hRh2w4SDQ7N+putl2cLBewMumkl8s95O1UNYA0wW2gTqgNwJEZmNA4wO2xgChJudfDFvGl2dhLsZfBv4n0h0BtAoCTTuoEAp+o/c3aKn068hftKAeqAN6awBDnVUCxiQLeNkoe1orfG6eOOUNnxGOIAb0RwAt4rc0IIo+TiPOA0TyJO9C6bWdmf2cBpgrSCAG9EYAwwrCqhIc0guSBC0/5+Msf8rbZPVF8GWTPqIO2BwBqoZQwc+mga8rcr7KAayFy3xRhmokuXMGdUBHBDDUpjR0LgisjQFZ7HGz/JA/2XzCSn3bc5rY9hH0gtZynMjfGsLWDPDmAlbUASJ2vXsJVDl/YrrIPcIsPGv3tkUdMCACtB5AfZqam2GvSy/5dFR9WfqJYvZ5tdLfXEFGEAO6I0CLanVHuPIAi2OApLDfd8TP6ZlW++b7y2wRAL2g7TWARYH6fmhbCfj3L3ctTvpIjNLer7L/idVLLXFptqgDhkSAuXsBy/8iJNbmj3PnRa84poZvK/Nv9s5gxY0YBsO9LH2AAYPBl4HtdqHNpe//cE2EtR/SKp7RkKN+TyxPrr+lX3JkgtvvveqAlygAoEnc3xOjDji82XeW921mfWKQAbcL4JwtAPlVB7xCAUDUGqI7YGJ5tTeFbmw3ad8O1bh7HAGmKQ24rgBeA5AAGbYx6Nf3cz4T/lP4kn+ZvfbDto0AFAGg7ge8RAH8LYHghsC/wPdzxJP6bVT/Qu4e1PtibQ4QoFUdkFSA8Yz+O6B/Pqs6IFvsg77h7Z1kwBgA9c7/m9ofhQsKMJYqEN0S/IR7Cf556uno7pup+/B+KPY5QOz+rX4TzijAgPcl/zeZfB1A2v94ron+ZhJ96/cCf+4P/RFa1QHpGmDIc7AFbtFZwJVLXar1BH7VAJv44f3PIoDYplP7ekoDzoIA8AR/whZxzoI+L3V44fcmGASn/fFhn9d8/0UrDcjUAGPMGDCWRwG+FEQDckVf14e+Thq7sIR/FnFWgOO3LnP1BSUUQEkfGB8AgltChACYz6K7Hg+jANR7gBeHZufSgNMQyu3kI4EmAUElIPidJB2yxcirG4bq9RZo+tFZptKATA2gn8HLojHguwbsV+Ev9QTHPW4j7LH3swcIA3VP+KQCwL0YowSD7kDABpg4zTfyb+u9HW4J/gqWofCLZaWjNCBVA8A7b/Fl4ZuOrAZ0nbTNZ2Mv0NhNdcf3nnslOo4AJISt1/+InFaAIQb2UQSuibEF3GHQx0n2eVGSbWu/ToZw1h5W+HUl7M9RGnCEt0H81wXED2V/IioFH7idpV8Y3vxGwN8nTBxgBso6WT9FYGlABng6mj8XrIMyQEZCA7pZIvbyqn7v0kBsnPcj+XOaC0ZpwBF+PmL/0BBgzoPIAYNKwGcBH0vH766xx9/o9k5OXJhmwT3fRjGgfg84wJuQz3iXdxMIhj0Menf8L+sAjvh9ly/sg6DZa6n87AIM3N+f0oBDDGEc2qclHTCA/jtsGvj34DoXPR7KOzOp3yr4Wyc3K1kzzDYoDVgrAAGfoK+WokDp/8/e2S23cSNRmPaGP6UqXUglRbur1CorR7YVZy+S93+45ZxB60u32xAA3pAcnplBA2PfHaBPdwND/TgIuPvREQ9/0IO1b+QDxin3TIGY9tMQCPys4R6Xn4+vK0BZ/diYCWgs+HMB8bcCKiV+dR39ycHeSqk3Cfp5FR0Azl+4aEAVs7cvj5rpsob4QOzjBDgYQDHwV+gn5kP+Ef35fSr1tUkgJCuePpcwz4SLBtSwRfyJ/4qdB1h+NMa7AFOBzz/Wf8TfBm6fv859iPplo1uwwh8+APzrogEgYjOngKJbHWvkDYx8JCBuCLhEQJ918B2vrXR6sbxDH9SlP6Z6XHZ78jW6aACIMA8vkAjub9wCmaAeEoFYDfynjwEgXh1ewHzD6of8qPhq/SW+9c/gogHVHIDoz4xxL6s3WSIohEMB10YwXIecLxJPApjAJfcx4aNvtBfuWfild8kDKtiIZ8j3s0Fd6oTpXxJwnwix32PLnl1+iK5Hf/D/X7y/muD5EX+9TJf+JQ94B1J6J/9uCqg1ISAMDLkgPuA/VtX32/zlHc4fJEEARNOJSb6u0HjuLxrQpgCFedhHCGTEu0WJiED2mZg0gAAw7vLqtn7KfZ72IQD+jhIQ+b/kAR05AEsej1AupkT+ncj08Jkg4T9Sb42P/bERKLxdcYwHQPbV5rjkASDA+XtxbQ8GFVCDAIj/EAX8TsDnvH/q+ivkq7UO65xZEAMA4aIB/QpgHsApPtzLUCLkcODeZGcDb2DdBf+w3gC34N1Gb7zacNkPqCiAwXhnhG+wnBAN+K4c/KdNAZGc/44HI3sBYNwFf7xN032B9X/RgF4g8oKTA2YATsBFge5wGMfD4R++rcnBCmdE1Ecf6tVaR7howPhZIFN/OurH+5dkS4hEkP0AR74741U/35V/3ZXu8bPVE3DJA8YUAA/gDY0ulwYgA+GHI6E9yfYZQLbjGk/AKCv0+oLfRQPG8EsAAoBBA/Qke0L4gKIBBoLAugCAMBuStC9u9bbi4XI2NM0BIB7wkqlQbqoB8XQolYBrX+1RyxsQj3InpEM85X6g/iUPOFwBIqL6C9YNtaAsE/yZuJ82BVqfh4K6EgVwc+CiAcPIaS/dqArEhnwo4v6gHBpgxNfLPfTzQx2YpNinF614mO6HSx6QK0AdaD+5AhoQgwA0QPCf/ETELC9WgUtLzNcd+T2oMftw0YB2BYiOAC3gdJCbBCSC0gDKQHW3j9O33D5Iv70cxcObA7hoQKIAt++tfQxikNcDORpGHuBZzz/kZBgyPpN8an69AaBYL4/uiwZUFODWU0+HHqXB+Pekwu/H31AJCD4gP9IN9XA/delr2A74xwNcNKBVASJCuTgoQCwG/Y88wKG67H0qCPdGfFe+H12/Lg0uGuDAyq+HAoBDgpF+Nb4WxKkuWc88nXyDlx3e8aUvo27B/sVFA8BW9KtpywOoCwOXCRAE3FR3eePGP9cb/Sj/yCx4YBLssbdTZxr996IBYDMzD/u3didgCsTPxJgBf88EH7z4x294YDwJAg6K+e2iozkwz4CLBiQKQFsBIaBGSSYQa0FQ71d9stmvcbRD+V5k33ind9kPQAFgHR2QaZkMfCzs/5iQ7QneOpfv9T4546kLvz8EiFcTroKfL39CxLAR2/DdMAnIDuN3IkY/GnDvivoM7FFjF+UeNez0dad8hXw4L0bvZFYXFAW4Ff1l+etqhMQAAcAFRA0Qr9EFxDgg5v9DgHhiPxy/jOHyczHkAIV1e+gxrIBQkP0ApsCtk303CfIzXiz5Qd9vVigd8e9wORdUcCV6Wf+Q78DbEAL4VCAcDDINcMe7PO9czuMPhn4m9dZDBSwKFJQTXn46WGDt0yMVfD8acL8fG0WAPMAFekH5ifjUjvt+JMDxr9F3uPxspLAuZKP+NAKDHOSC7isxSgG/UPZxmzuyXChAP4j5KfaY/pP8R1zygLcqEMvd+QN7YbilTYtBbkdQMA0ofDMNIvPjKZ9vjHyIr+CiAavVThxDLVMBMArugYpwPBuCB5AG5NST8bP+R5Y+HRZ7GWYCcMkDnAKIXUhn0avLQE8OfzzUnw42DXC1Xq6xfB/a9XDh9PXwwoxwqQW5HEBlgEI1LkCXnxnOScRiAJ+JJAeDnsQ8l+P/oJiPxA+1t6Y8Fw2oYXd7G5b7baGYd6WtRInuJyOSMPAv1j/UC4PbPZzv0B3SPYGOeYZLHpBgLcqRAVF7Ww8DeCf88HAYJ4N+c9VeOgdnfXh9roxuCwwueUDEldgXWOaogC4WvGwmAuFLsfCJiDQAzg/3AMQAZH2k/+/j5/uf79VZfC1oJyoJAtQzelF+8wu8pbEogDiQGUAtKJ7tU68bIjxs8VPqcT2HML43c7/4PGB9K5j0q/VFYe8G7KZXGicC7lyQaQBf/IPxmo/1Yo1XJmcf1uUA7qfB4vOAq1vjV5hGNvR6oFGWFIQoEAVABCY8/4uMf6jeby7fO4B41qMH95c8YFIASOdi2TOmS1bgZwCZYBIGogFj53tJ+djzIckPDoAOmEVfy19Wz/3Sa0FrE30zhIMxLIBw5oZGBucD0IASBn7jk67R092UeenbxQ388P7n/aN5IN6tXXgeMOcA1qD2tyb6MvgCu9NNAV8NjmHgS/JDHa3sQznFflfvrYOFL97nCECDpWvApABogIy9mBqId8yjBur6faH4FwWpBcF3j+7zwHbpU+hpFXzxTv/+YekasMbp28NALXVB7wm+LxD+lm4JMQG+QWtrDEjKB/1q4D33+TmgHxVYuAbsFQAg9miAxrK6TRKs508T2x8b/ZZrwCP0dwZ/tuhFf/2gR3gD5aT+eAA1S9aAHRGgDwN5PTMtE5TCr3/BfykYjwf/Ba897KvB7VPpqTAPQszPNJj5X3gtaH0bQVUAI/YRBMoB+lcbkgwa/UwBNKAZqH6p9ahFClq1/z7Kf7GKA8X/kvcDrljsPDQ4AT8F1CEnzPaEvmWbwo99H3UEp28tzXvKr3q/LXS9sPFE/UUDJgUIgHhUwca8mnnXQyxooBQQgoBeDdByJ+sLk6Ix6JfVRCDsKx1dy64FrT3n8EwKQGv/gwv6KQcmXwtzMOhbY85ndIdtXF40Zf3eA3hTqF96HiAFqAKiy6jEg7TeBygJiBsC7Al/afb+7PTgAVrIF+sYFrx1Rb5db/cyNWBXpx0FgGpcg88S9CABcVMYDahne28dor6U95b8n5qfi/itgzNY7tnQdUI7EL0YrxWcGioDfzoQAUAC5AUaDnmR9fsoMM/68t1eSr26vAZwgWVqQFUBIB0XQOofI0CN4vlgmwQkgokG4PBJ93y9F8B8TPR9gY+ID95T/ks1eKF5wO4d+sOQVmQzpkRIGMDRMBcFogGQD/vq2DxII0DACEC+QgDUv1CvJsi/YYkagAJUkEsCboFqIC4AEQgbAlEDHiA/nO+Mpb7QxUC8I9+6nnU3C4Ril3ku6KqVeT0uTIB9vSAmEEgEnA+IGsAGn241DXk+3MO+l32UP/p8Ghl19s8yNWDXRH6sAsE6HoGzArEgSByIBqRJHzm+Luu1pHwK9KGfO9Jvb1n3YIn7Ab0KYC0WRSi3wf16IBJAHoDaq+/LfM0b/RR6ZJNgjwu/P/87d8HTamm4avX+sM/6Byx/tWFLMJwNnDWAEq/b5nfOv+m8BwqA+sN/rAEi+oDx4jRgN7D+AcyTJWrww9OBnAuakER9cQoA/g0Q5rG5B9fhguUi+rxcbh7QqQBeAMzQWHWYTDDmAdSC8Pfk+tj3wPYO0V+l2kdAuH8SLFYDhsiPQzYK8AUuCPhmU4BjIb/60126vK9vCf4s8iMLoOcu3biAe1KAgIXtB8wKcLO/usCiD9EBkYBJAHOgwPIA+PdbfHraqj3zokfyp0Ee+DMx3CxIsLDvhNeQf7AWANsTtDmACuAB/ocAYKamGRR6zNaSPqI/2gRPC9MAHMBkDp8JIj/MAK1/EgHLA35F8iE/KfalYH/XjWORnzPf86gJS/rp4N3EemT/pofyWBzk5fefCvog4LMRbpY+YAz1kn55AFZ9ctkt2vUmeAGw3DxgbZzD+g12xA9QDcQDIAGC5QFJul9nXi3Us+LpJt4f5sElDyiYuZ+5pgVDgaGADoS/I4AL+CfeHzCgz4CvueE/8A3tGkQ8vMf+ojRgC+03pQX0hxwBieDf5oDbD/g35L8HuBZcbsfQm7Tc14CnBe0HrI18eQENaOk18w6SkyHhM0HlAW3BvncAzIK00G824qIBCRzhY9EgIBIkEhD4vYDwWwH/CS6APsDbl47eZUE/Q/2HUfKf9s9SNGC7p5iLhEDXQUrAh4PhbJhAHtBa7lUL1fShHa/fzT4lADVPT0v5+fi1cW2MMwkY8KI3M8x+L0D8kwfUYMvdPADvNEwudnnGoAnwtKBa0CT9SgJY+KUrizyMiIEe8a/L8gCCAGlA/aMO4jyNf3jB/jD1ZoWFaMBW9ItpswKmPIBxlXcD5UA0ABeABsQgQIyzzePq/Nmlhjh/zPfLzvf9MjRgU7h3hHNBdfl/3UFAti083ZQC6nkfpnBPppce7Mf/95K/fwr907MUDZgXvjGsvl/jaZ1YT+csoBgYtgR/T0L/sMefBn1ubNSPkC/qJzP1ZXQvohakHGB/C5YF6NGty/h243bYrjAzgD3BRAPcqR4K/3nJh8VvzUMf+dZxEP0LyQM2In6GpoCM2x5kCgDkoQ6qwYIUQI/bD7j35EO0OKYN1Mt67z8G+McBLCUPYPnvO+oS/qtfeLaOrj4h4FeDJuhHg6gH63Tw78H7T9fbqof8yvFeDvf00K67KL7HYvKArWimEc3ogL2hQjQIlwhED/DnnZd+7vhJD0ve3sE7pmnJq9GtMAAQAywhD9i8Kb2RrQ4C4P2/mRgM1CuGnBDnXIivBZUoj3JfXPX5sn+Afb3vVH9RrceDV+evAeJb9POI3KIM5vxdnQA0nCNiT+i3+cYF4AP+sh/td+rP0F3W2FEPtb0pn0X+RvVCNWBblJ9WDcSLYd3EAW7fuNkFvJ0NIhFgS/AzrHKoP6/4QPrQLq/5f7/cMywiD9hY+Kf7bYAOaIAYuFKhGjoR2dGwEATwgYDoNspDw8Wxft08ajtcv3P+OZahAQR/QnHzAm6BXJAL5mlkay6AKfBNDS5grwFGrsv+sguQ/jcRL5NgwRqwhWvvAczp80KAcOYE/NOjzwSIPxfgjwYqD4BjQv/v/T9F/y7lN/4VBEQsVQM2rH01b1yjAGSHpv/WJxwwU9cBqoFoAJ+Jimwn/clZH7V90v+kR0h9/rI1ANr1CDbQGD3w7kCMV3MAXsZU0IcBVgv6y7GfXofgSVc//c9nvR8gBYB1+vZw2TJPdof4J415F0E5OHEB14h+mvbr1WDYb+TjAC4aQA4AbmmFmCFQKE69PhuJvDDqdcfTYb4Y9FSJ/A6p8se076IBwPEMxyEngO8JLi+gQ1TgwCtEIH4kRB6QXCHL6/UBhHzDeD5fDdhGnw+IBjFsE9vjDolEv0DY6A6I+jgQF4AGBNmfXkP30OG++2Hyz3s/AAXIfYCrDctQGaA2iCZYG3YQQOHf6A8u4IktH5cFjIGTXaCf/+f9fb4akMR9nnYcAS/sncjn8ADEezlgxF+X4Xjob2E/IN3l7aceM0q8LvXO+FyQKQDI8oH4Bj9AYZgwIYQH+IU0FfzmvhK7eeBL7s4NfmjnWJ/L+oenweQCzlUDNlXy42uemBHowSfcIAPZn59hCnAsZKJfeQCnPcX/4Rn/mAqId9k9zvdcUE61TwDS4pAG1Aixxjj6oBuPwOnAdE8Y1sdx2MJ/NuGXLTjTPAAFqAEd0E1gYCZ8UuDyxPLOHQ6kIjxvCLEpLA04cOkb/cPib50Zs304Tw1AATpmQcgOjX9XHSYjsFuXnQzheCDFIKsFWbo3lPEN53uwXoRfxIMzrQXt2btu4p1BaPAKuvx54qQWQBzgTohPKBog+g/0/Zh25tWY8tvKB2e5J7xtX/b+MZAnEgq4icDkYAYgAhQDCAJuOg/3U+g3zsd9v1lcPzjLPGAzrX89AyAkoGHVuxDQLLlgAQrADHgeSvsp+R0U/Mn7G85fAwZ5x8pg1aAL5U7YlwLsoUSQMBANaJYBrXeOdw8Lv5CSf8Z5gBSA9c8oAadF8h0jXvEpgQ0oE2cSoIafj/7ztvsz7vtDnH5J93TVcX5/QmQD63T6EE+RcpCcN5QMyAM4H+h+OhQN6Kv1y/QvezrQX8HqzLC7nii/vh7jHq7pOsb5ByoCoRpgaUDIAzo/6T0o6zPtb8G5/WTY9npPe7nneaCnkXo6DFj1yUQwL8BfmOG3I50LuG0p91PvGQaeX0+CM88DrrTyrZHFtMCRzYBMMJYCZF0awI6gYBrQdsLjkIgf+lvx8vR8Xj8fvzP37+fB4WEAa54up0QoBeEAQh7wsRbzW+ewlC+u+yVqwHbivwQA+x6zoX8qRBkgJrA7ZALu7wrPqSB5wOanhPmQ98kcUu9VQ72nAS/PL+eVB1xJ/QXRjw6oNw64h3eZMizgKyGBUwHbVXX5U+s9UPn73cBZacBOvIv4RP6xbYBrYr9UInAAHAxgV1gSsFp9rFb6Zce5f+qlHQ/wck4asL65ZrWjAAnlnZkBiAdHKAxbHYD9gF/ejgVsVquf6hHAOP82Ccb4P69a0F4BpPwT1JZcUEOI1wN44XnORyQEPg4gDIiZgBRgtUL63con7BsP/Yz8pz72xf/LGWnAPgcQ7zL0C/mEB6NxIadC/KFyXUL8m4JWC1qt0ACEHxyY+HWS/1Lul3PTgLWRz5LXiCFZAdFhlwjwJtaHfDWQLwSKAhQN0II3W3A/6PXVjkHMT+155QFXWu+4ANx9tCKefgdiHcDYRwZCMXCPvQJM8L/dxxQYL/bRNPNeSEcE9jgXDdiJdVz/PAVcD8plelKCfETf7QhoY5hMcLUyDaDcd/ABz7HCjy38mXx1zkYD1ui+jLoi3cJCMa5LNzowVh6iLKCbcqDYxwVsVsJPVudTO4iy5mVH+ZfRJZyNBuwVAP7LTQRglUFTfVpsD/vxJYfDTAYKpACmAVR7xyM+K/g9Der+y/SAs8kDdkY/NxGBmxP7xxoXFHQiRoTUAskD9JHQquDDIW5fgHV6rU4fG3AuecD6TfnNBdCHdqiHc7N0UYiuiiF/ZRwXIAUwDZAPGIr6ZGThvg+SfGm+x9nkAVdlfQvWIQBECxzNCfP9YSE7g2FbUNiuDE+DgHVs1/p/i/sTnEsesAvuv0CDcsnj09wwSYZdPx2+G44nxFdv+ID8d53oxgUIT12qT+XHcJ4aIAUAzAInB0a3DXMvoE4vfCmAGSAFMA3ogW3yyAwI/4vr5cyfUR5wFagPUuDjQaMfxnW71JAIofUYIeXgUgrQb8hvV+B5bJf/qd/3wz3k7+35asAOsmVx/G6sPooQQ4JDKwR8JoYErFbgQ1fQp3aYevI+o/6sNWAdBQCQEdJCPjkBe8iHTQH3awEoQKcGvHl+mt5qn7hv4f/xDDQABXC8JzNBDVOCcBD6R8+QEQcY/5YDoAH3bfQP7PHDPvk+aV+N/zPQgN11Baz7mBnIuv80geCg8xQJ1QC+EVmBdg2g2De1Q9ov+huof9zj5fHkz4auA+G5N7Br6sfgAEkotn+vkFPiv7zxvw4TtSHdn+xgqZedntaV/zLRv29OXQNQgKobYGRvYqWQ9MDetHuAaypBJQ4wBQD/ePdct3y/7FDArxEToI5HYW9OfT9g10g69QC49g/5gDUEhVXkWwIoQJMGQPzA8ueUVxMey+Iv0+C0NSDkADnpAkPru13DsGmshgxBT9UbhF+MQAFyDXjOjvbK9rt+yG8K/WbP/9ae+NnQ9xWA7B/aC9v8M/9JDHOWANJpc/p1symMY61pAIc7Bpe+GG8WfpHPDBBOOw/YXd9d9wGuJ3hJYIoQOE7QENSmgGIAFKCmARL9gQM+QPSzzatOPeybnoiTrgWtO5inh1XDXHgjXd0kK4ifH0I/Z8N0QNgUINOAZ1p4H0v4ZIn8MuLp5jjtPOCqiXUA69BvhuRAIF+s7iPncSAKkGsAFZ+xc73UetWt4NFyfns89PJ0NWBSAGlAvxBArjf+NAGvBX/G1EUI7idlf7laJfiQnOofBfW++gx4pOqT8n/ieUBRgDvaVu6NWcGIN8Z18+gS+AA5PVVIOXidTlfL92TAyE5PU8Rnnl8zoILX1anCaL+zuxGO+uAOZH3BGJqZFtVdQRQg0YCxQi9HfNQ2AebrOFkNUA6gp1sA0hJBAW6ADjUiY59SAbgtQAEcPlipZyTjo30D3bD4wZvOV3C6+wFr0d/vBpgCdlEnUEtjDqGMCf8RgUQDUACHnVV8xh2AIPt+4Df14P4cNUCszw/k980BEKaADLcoVzceG6LHDJBLzTVAFb+BPV6KfW2eX6YZp/mzkTuxD+V02kEEIJbp8Q+6mBIZ+QAFyPDheXTlm2mgXm0P+6+nmgesRbgSQTrMgxGg/a5mTGGQjslAaSkFSAFy7PqLPRD/HpB9NeBsNUCcO+2n864eEPJVtpGoDpsA6CVdQkJ+YhgFSDSgnfwQ+Olu459yf6sHeD1JDdheC3EShNLAQHYYXYHxrQGlILjXkBgABRjWACaB7iaQ89VivzOqBU0KsGdfAnBTqNYY3uN8aKIfS5/NATUuGVRLNRAFGNMAiBfzBAENR3zcNOjxACepARPdeABZOOadmjqS7I/AEGsbxCiC+uwNlSgABRjWALGK9Hec8xjE6+lpwHa/1nWpEdN0BHoa9Pt/XjIJmABog98cRAHGNMCIfzfkp6OHCTDiAU7vp4PXOHYedL8YmxZgqFyc7h/b5TeLUYBeDeg72Uell94I+yerAXd7KArwzl53rvp3Q0lhkAO/S2iPdfYgB+jSALgXGuJ+cc5mbz/xYn62r6enAVIA3P/UMhvcdKA3j0YCAsGxTqf4f10oQI8GQP7UEfM9J7y68Uo7kS8HcHIasDH+J+N032YED6IwLgIQ75gnPixDFKBPA17atnpx/rKDsIU/sz83p6YBItQ8gKAXemeN3YQEh28eogQM5r5wjQI0aQBl3qZveY14q/TL9HOvR/1C/ulpwLZQbo0wz4PywquD7p6iQF4vhHm4RwYmKwVo1AAqfmT9Fe4xjvmXvnjfhF/Mg1PTgI04NsrVzr2YG+hteDnsAxjq4fQITsIUoKYBkE+nLe0X2zYJBp2/zQL416sT04Cy8jHqiVxLDmT0gq4NnT/oLBL7SDB+VSAFaNGAFwxuv0X/D8Krbnh/pXdSGiAFEOtvltlASuDSAFl6yQmCgRyByrAucoCqBoQPeoTGc35kfWP0B+ZteGp5wMaW/B5wzjtY1ituATsEUc3AScR69T443tezy8cHXWNJH7Dg3+O08gCRbOTrdiN1UAJfIbJRVjAeCwy5UYCaBnCqW22D9HOwuxuvRP+6E+jtSWnAFt8P6SiCVQdkYZ8wwbXqDW0d08qgAHX8ZMWeFsU3A/eD5V7CvgSPJ5YHbO5AUXtGoUComy6+gG5XgTD2oB8FqGOHB3h/4Yt5dcc8AAH/o1pwyhoQ6WZgLmACBE8tiz/Gf4xlxoEC1PHxubXeR8kH9vuy/hjy5zgxDdgrAKAYlMQFRnfp+a1je5twz6ALm1UTPtR5h388/7jrr+M0a0Eb8n+11oHgkhfI8PKN28rmAf/SnAxiUIA6cACVWr/4H3T9lHt1t9H/9WQ04A5AP3MCd4CLN+OcvTUacze4AFh3ueGqER/ryZ4srNPpyfaT5X8uGoACAFwBlri/vLGbMrGsFwJred/iDVCAFvxU4V+N7Ljbp9bbuva/fv06taehAZvA+nVCOtGgBugDF8rvDJOgG9tVKxpO9/bDuf0OiPsyDVangLsMBAU2ctEh4s4MYceQOUAXl9AcEqxAnwZwvAOfPwji/Z71P80CNaegAV4BqnJAMECfkIDAUDY6BYF/bsoBBjUA3w/3A/Ngop6SXzvk/9WcRB6wSdY+VCMDIR+MOwb4ervCTag4pAB1PH9/uE/tqAPghF8P8boL93pOQgNY4/QirjF4fFl7BLfqA90adR0hWYEODSjZvl/+o0c8O2GOH5xAHjArwOeK60+QHBrAF0A+u0XBPTA8XAHQAA54HXSsW46fam8PjP6pFU4gD9jAfW3RowXGslcDGb/+qQcxFggID1UAgPs/eOXD+mMX9ca97IxTqAXdfbb1r7YGGCcOtMbFCZQGiQ9CPMg0GVeAXAMOZb9X+kW8TILjzwO2TcQzAbgN7BTZkFCAFg8Qzg4crgBowCO7fAOwA566mog3p692tpH/x2PXgI2tfjmCCgLp3HiAeRyPChIYlBEqgGVGoAB9eNbaP6DoQ72ny+0nug9OIA8Q7zx14O+BRqgA54ZwBbxjTtg4HCMBq058HKc/ev7HRvLVsu5zHPlvRWxFn5a/bJcSmA0bRvTi7nFSIKSDJ0ABejTgoF1eSO/hv0b8ieQBG3EP/WqbZwF9nx4Y4e6Imf2TDwecENBHAZqB9I+sfwUAfW7/tVxVfDnyPGAmfo4A1OmCSwHSYhLEQzovRb87PIACdOPjcNLfHvZ/NVtmQAO+HHUesL2DdRk6gDe4/ZRwAj67Tf1LF551m4mnSVCALg0Y4H+k0mPUN9L/9dMx/3z8RvzPl5pmlx9AKBBbasXMBV8r5gUasF31o3uvByfQBdz+a8sM+PJldbTY7TmfJwD8f24qBX0O5DJ0DgLnjwSEKiEgcWxUgHENMNbVYtrIx/k38X/M+wFbFv5n2O8NASE6lgnDvGDFF5N8VtKQA4xrwKsnv4N5X+7pwJf9c7wacCX25QZm6mWICVJ8vo6+Pz9RFKrD4QSZO18eT5ajAF1oWvZ8zKt+g+YzMHR4ADmBY/35+J08v4nA9BjzxAO8qXsCnH54kWwVqEOJSLdPBFY1jGsApzsGZJ/dnmb2zRzrz0Zuxbotf3UtG7RJ4BrAIAGcY9U65uOBQZ47FGBAA+pJn/mAHu4p9/WAGPDLH8eqAVdl/asR5XBb3jST7hmO2m+XXvChIZJAnogC9KOu/J1L/ysRf2naEj832ON4NWAn3gV8voYseHWtx+uW7SLmAcZ7hrhrYDFAVIDDNeC1M+gn5be2e+Wb/ssHHKcGrMV10X7UQG2SE0J/EyAaPxBqSej/39+TAxymAa9xCjANmgI/i/nVaYaRXkzBcWqAcoAZlgjMjaUG3gP0aUHkOzqAMiYD4JApCtANT7od7lKnTwHsaP8QvtjqN3w6Kg1AAVIQDJIQ0ldLB64riDkB5UD+zZ0cWoFhDTDe4b4v3kf8ewDxaguOVAPWRjbMl1ujMjbyZegKleQw/9jUhvEYsYsSUYBhDWCLlx9xGzrYPxD0aw5E/HqMGnCVrX5rxHux0wPbsWhMrwFO8kkKyApRgDGg/GR93dn+QNIn0ovJZsCn49IAFCCfALZBLBAJqIMvUFPnu/qdAWUBf5RkdQA+8kVf6bTCNL875lMzGfx+IH+6jk8D1o53QFrIPxrfGuEH1OGp4ppekAF3zhwFGNWA18h83/lONnv6xV9Pik/HlQfkCgDfNLITqBRjp2sQKACxgj0owAj4vfbuch+sHx72Rf7/OBoNQAH+/fld3PG4o8M0BIo1skMP0qkI8WZ1ED50bvK5E92j7KupzIBPR5gHrH9AeRyIYlIE3L3ZsUMkjOPnp+sVGNSA7tMdkzEBGCj3CVX+Px3XfkCuAOi/o5+uRQGQL21ADHjVBuf9BXKAYcB/06e8on0s6yfsr/h+7HFoAArQAtIC3uAQYiQI6jUCb6I0rA7EhxbqMXj/bqD87+HTpy/HkgegAB0gEaCLgWtsDdSF1RhQgAM1oMvzq9MJib5amRZ82uO4NOCqh396tAQAHCPB0oHftvPlhzvKr+3R32DQV7ptxMtMOBoNiArQlg4YzN9TL3KnyJgQvOjCCgxrQANM9HuLPkI97kf4dYt73c0acEQKAOCfrvcGGoIYIHCgMCkEme1QgHENoNo3sttTD/qBuFczO4A/jiYPQAHGAf8iXl2Ib8gSiQAACnAY/tHg+Qdq/Wok/Kz+GuaFP1H/abZHUQtCAf6tW00Ab2D7/9Sdb2vjOhPFy12ybXfbWAt9EQy3BAouXEoS9vt/uMc61fBDanAkNZLzHMv60315RnNmRnKWQaBAoN62v1p0ici63K9N78B3NQDGAbxX0J9yvrz7hXk282/tdjRgA81Qng/OBSYjXoOQHB9jDzlhweYq5r24/au3fgj7Fyu+tvFDBz78czsa8CshPs8WXpI5EYEJgXpxnmx9zGHBB6AAV9UAXEDVzsftZwBDMOXX67sZhRrQ/xygxg94MMHzx95/yqsW/7oD39UAWGdaHPdxve8i5ei+miDiPffBAtbWABSgUgJAnAygBW57mnE8CUwzcXwsws+58YDfSdBffN7zHnUc82rIEn9pv1gX85rla0D/HGCsKwolOjCenjrj8HSYcRRmA9puh2EcX/68mtyL/UC/fwuVX4Rf9gDsfnWJ9s9N8JO1NQAFGKM8oBBwr87W28NTNxxEfKBeXibw79z48vyXsx5YL4OID51WC84/Df2gXlsf3EgtaCP21aV+gBnIjQo7bv+DIdB/FP0zhmFw4/Q8of2aVF7sznP9oh/3L7DnTQWEtTUABRjHUSbgBz0THqHSHQxPvXDwzVwAFiATGJxzkzSgMuYz2c9gPXTs+483wN4HK+cBKIAT/YFzDUxZFQL/30v60YCgAKftYBoQQr9iAyDtz8v11BugXi8WAG5BAzba8ksmkB0j4gR6CgDBX7CAUxQEoAEVl3szc348gFognswfJNjfrY+ZeTVhGnng+8YdgOf/XBi4RQP+K637vpP1+z6PfTGP7LP/iQFSrK8BD6Mpvr2yg7CA+7EsSXzqCk8/FnDyTzABNKAo6xdyj/kEO+X1M9EO2QnxN5YHbGzbWxAYrEAdnoBZFv/DU0cc9AT6D5EHMA14KRWAfNdvum82gOMHt6wB4hn/r4WZg/owapqN7VNnkAgKUR4wjrMGFN/zyb3e+WbsC/j8TKz9k2EPIhzew+Znojap4QdsAOOKHoAg4GilgIDgAqZZA0qTvwyYz5cLIOcrs4C1NWAj4ukCxbaA9rI4cHzqDYIAD4KAEg2Q4ttwSQBw+ux9yv252K+tAeLZQC3IgkCbmiMgV2RcNwtI8wA0gDzALWrAe3hzVd8Tr05vlPGz+/9fNOAeA5jUBEQgMA/7eAJmACR1gM5RwCk+DxhHNCAhnwmbXsPCxscIjHUr9xbv/7mtpAFUgQDke0D7SGagBlit5QIoB0M/5eCtBxqwqPqEfsvgZm+68Wv2/37lPIAIkCAAJeCQgGQQG0AI1ksEwYEwMHYBOhBa0AAEIAum/HbLT6SHO17F2Pt3HQ1AAVJQDsAPkCGoN3m4oUyQKDA6EdpeyAP4njcDxjrnPca8JlXYr5sHPKYxIIxTDyQijGknT8AXrBUGHBABqsHLeQCuP6Pa5x9N4B1w0pvi5mtB0+SgngkDHoFYIK0Qj7fhAw5JIkg1MNWAd+uhPsvxW3vH5fuJ+lLsmS1oQH8FmNIJSWFYIAPYQJIcrmMBSS3o63nAKUr4M5WfWg9un2BPM61rnL+N/9z1BgqwgIkZeSFz2IZz6oU9LQD69SYXw7gX9PJu9LP9L/kAtjy6j/TXe32jf79uLcgLwNwWMKmzDS/2yQRsPsL9urkAIhB5ADSAiE/UZ3t/+LeTPjvwraJfnWde/PfXABTgIib6tGRMccgahgAG6gFdFOCMC0AD0P7Fn/MQ64zGvXrxz/XOOgPQq+fTDLprAAqQawIszP+HObUC2I/gDr34tyNhOxDyT5QHPH/6e2L/S/SnUT+HffXYq2mYDcBjPQ2A3AzE6QA5oO9siErIXS2AUhCVANFPKcA0QFi62G19WuRH/YUyO4Dzz2lgXuiuAShAPawQoEZ0iBegc/1UQCANSPOA7Xsm8PzIvhrE1+q+fwR8wMduHQ34OY5JDOiWY8E4KJwcdWORjSaogfHYiX/7QMQ/FANlAINpQJbjj+/0E/lBfb0C4PvBOhrgUsKdWwoAgDFNz40BZn4wcziu4QIQATTgYspP7ofXx+1rrGUepw/W1IB7Nzo1waxB8wynMDFQDSZIHJOq0LEP/6kHsO8D7Dxgm+/43y3b+/7GF/Hm+gH46JsHoADO2iKmpX9RYyQboGLQzQJCKUggCiAIGJ+f33J+wQtYvbee+mhB8Jdgt4YGiHtnBuCcxiKk9cJAOrlh/6Ohc5UAjgQXNYCdb59xkuurrzYBdrreG9GA++D8nR61fLJZQr4T6YQEE0VDtVOXKDD2AOnVwLMa8MYb1fo8rhLx6VnGCnnATzmASOnrXEBqCFrr5dxQ2PYMAigHcx7gNeDjDP+c9HxEkT/ev7LW7/uFvb9uHqAA0La/Hq1ji1CXFQlGZsBHRtFx4bZHGph+J0wYqPOAvwn5NgnAANTqPT+yn4X+GnAfMgB1Du6z3MGkloJro8QE0YfnWEDzeiAWgAtAA8j69CT0G/GaVG9/9n4eemkACiCIfVmBXlApCSSBWqQfHg8dj4QC4iDANIBqj/V2xqu+nnkD1Odg1z8PcBiAhECj5QNhkkM3IAxwJg3mCjhEGA5d6D/6FmkA18OD3xflGgn5NPvuSY9/fZ+//Xdq3TSAKpDYF/+sNJIfFjsCC/soCWECc8fBQHMbCPiiAW8IQCL73PGohAhXX4Cd3t55wM/AcCBcr+mA/mYRQo4cTDmHB6YDbS3gcPEbsec90X98uR/q36q4R/lLTUCtrwaIehFt46i5dWFZtP2ndE38Z80vXS8VEP+JC1AeIMYlANfw/IADPpAZAfTSABQAGO1RPqD1qObywkPz9erTv1rP0VAPD3CITgTtPGDgoMcm32cf6mvo33XXgJ8p+8QDoleTDAko0oVpsu7YwQOkUQDnAXsRf9WDPkkAKN7+u94aMMB+agZmCNSHRL+ajbkGwEhW2MECqARwM4wjwT9/SfcrT/rQfVS/knx1vp+BBvRWADFL6GcBQGjJcbH+qfDEgLPCsG5qAYbkE6EhfCY6BAHgguc39j3Xe4t4V6+5pgK1oI4KMDKw4Hww2vlOI+aQYwQTY3yh6NTeA1AJiH4v6OV5//3bnUT86hjL1X8H7nrBAUAkoFd8IwZ6kQRXnh7wuyPqT51cAJkgecB3v+oQuNafbQHs+7D3sQA/+UAD+ilACmjHECCf0pB6UO4Rpm3704DDmVrQNGuAp6869lepRyjz+8lCxGMAaEBXBQBARAumAJQGrGEUhIg5sHqgFttOVwMpB9uZMCX7+ru9M2oyvx1bX9QD/6c+/D+4weVgZIZV+FGtbPNPrPAG226HwqfkpwJq2WdSFfOr12CUA637aMC98T8sss6SFcxrVQ7Yb2oBSR6YloOHb97wq+CeqI/Kzxd8/LO2AqTgxAAHoB4BoHY05oL7AsOhSxSACwh5wK4+7duXg40v8o17AB56KABbvwjiWWNSIUAJXF5ViOk0HJqkgZwHxC5gsDPhqqC/ouQj2vH7amEAoMt5wD38lwHKOTniVlEJJg4N3KFxFJgGAQMaUEA+l/vqvD+8w3wC/cuPu/b4TQTAZIF0JrEC4BdQAPLE7INj18YH4AIoBXAe8GdXFwWWkk+H41/C6+tDewWA8kL2AQeHGvD/dn4IgDtrDS19APeC4lJAqQbs9aovPOOH/V0m2mvAvUjXm2EFMM6UGADHYGYA2/lwx9ZHgl/zAHeZdsbijD+q9RuYL+DfH30UYBjUuzAUAMqJCbWEcmwhB5MsoI0GpGmARzgT3i2Sr4YV1B73WdJn77oagALgAmQDdfwzozakvsYSGviA2AGYDfB9QJbm1+x9RmK+fQ73el9b/2zkZvCAe6yhGDgAKX+SIwIWALQ4GkoTQY6EL2jAPprrqbjiSdwP/bl4/dFaAQbPvG+BdI2aV4kB18Y4IKDhEM5/gE4weGr8P8mlN8P+vC5/0Beq/rX1Hg57Ssifn38ba8CDCDfSEYBs9uGalVhnogVMZ353umn3i0FxFMh5wGLoV33BC/JL+H/V49FWAzaif26BexsxAPmHHBNI0wJbClpRK9Z0SRZeHu/u22hASR6wr6737tTwApBfYAE+BmydB/z+JBj6NY1IL84MxH8aIeLo83zA/ZygtsgEjlQD0QDlAWgAqL/cp15Pserr1aNJUw14ENlqzkQAKyjFaB296b7v2fyaExsC1ipRXJl+Q1QM5BuxZOerr6NfLymfnxXufh7ygGY5gAudbxoIBdXRZxaLcP/2qlOjWpw6hQiPn/bZIA7kUDi5FzSeC/4rNB8TsKOeIu2fG93rPDTNA34F5v2jcW7hDetEAWQiNWJgdWL+HLMer6b74KGuzP45C7AjQeUBVHwo9jDJTvnZ9tlOPy7/EAQ0zQMeQgQohAiAgHCeqVMrrhKNaoyR+5cHWLpJchfwcGj0P0rzjRB3Q6OtX3etl4hPb5EZqAu9QdN2GrCxnW+DqA4tKAK8owdqNYdGAZwWqP+C6REb/X01+vEBAUktaNS+V6e8v1b6i7mHft9EuvqA/340VwCiv9BppQ5HYJznSQDsx1khsSCNoIAcoIEFUAiA/vjn44n7axI/CMcB5Mq+ufwwlQmAh1YKgP/XLjfSNU0KhAhBdYIwsmAN/fDvxjhVbfSBwNffiqDSW3nSXxHxG+c2g3rQSgM2Rj6vEa2RGiFKUHFaMKYDO99iAhJFtc1dCws4XPqtiBHmi8G9zuKCn2/WncePZgqQgFCAZBDRt3TBnICawGRYMgGm+PzosMgkInV5j1d1AOnVQLsYNmtATam3/qBHpJP2I/0JWuUBD4MA49EirDUQBgTuGUvuEjHnjECIIkOHAlzVAg6+xSYgRBpQGftXnfMF7jVqgvL30YAN/BpsjzMNiLe7iYNadoko9QSsSAs1QQGwgBYngl/+C5GpSPAFIj5NSzY+xV7Cvgit84BfMfNnDMGaQICAOZSDz8tA+tuUODywub4IUAoiD9j/r72zWXJTZ8Iwk28cwzc5wCKLqVNlL7Ng4fj+r+6QNu2nukdl0+LHWegFpBbOKm+r/yQx4d3dE/HxYq+0yvunSmmc6o08AORTBmCMVvAT7l+TRuKDLGdgC0TSVQAcV80EBahAp3tDA1afVZ5c4POf4fS2XQ4AbFEQ1o1XIAKcRoZ45Ef8A0wBY3KALTRA+HfrQWwP/xV1AfGg36Z9CqTt8wA8wDPA+m3EtBe5JxxEpn2uBvTUBskB1teAy9dy8G//+finvEvUP7VR/kn2UABpDHbKA+qu/Uo3InNeh+iAdpMoTaRMCPGAZUM8gEe9RSlAoArwxAcw61numUc6ZV5UQMVZeNvUA0C9H6azA5HRAlyCAjG+keTwQGlXLwYaH9A/ygOE80mM4+w9/592Lk7jfdrNA7A9wBoDu2DE4oCqA/HgrJzw39T0f+QBWBxcfkyURJBvReADEtwDNfsizACVPl3fFTGG0wbrAfVjzy+AeqMQ9GQEqgH6SjD5jxC6/1cArLU0dAHWBVALApZ3tnZmmQBW+TPYP62fBxzmRYB+5gvRvk6kTIvEtM9aMyIHiGtAfi2oHUEtKEF/FvvMe2Tx/AHyT6IBG/iAbh56WtvIQ5XYxAI90SAjAFJVwaem7mP9PylOKcD4ALZ2wb2Ic7n3+31C8/6kAj5ggxygnasGvU8JMAwEAyiE3JA/H3iAsAbELQD7glI+ABWA+Sgo9IOQEmAF3nb1AACWp1uHEG41gtLAJEWOHXeH6jmatZwAFoD1gJ/Jb/hFNYBSv15B6mF/mzxApr48cicxI0+kMJRaKoBuJMZp1NVGGgD/JAK+Gsh6AElfztyHeFECqn2RsI/Jf5L2XG+VA8QNgSkNoAS4Al8tEPAmkAOsbwPIAtLnA67mUF/c8OP6of4zEu8jjjcvV80Dmq4drwB6WqRUjig36R/dvPMEh7kubIUjIk4BdD3g5z3tI/ALbO09006aEJr70sI98ihskAO03WJg9u/04xRMwYiGOkHQA4DjOitCV6MBdl9QxsY+DADWfzb3mH0sgLzVq17TA7RySaNog76AKADZBYXMfpqeYTwHWK4B7u9J+3Kw+AC2ecRVAOc/HxBOzCeNvd5W9AA+/IvGgbgBDL/3FqwVUB9UIZADrK0BRIGogM0DOM0Vpf9sMv7PkN3H6/vrpM/aHqDVJgtwDffEfq5sOIHigFwBD7Dq0lDye1EjqAWFg37pGAQLftLoJQMzFvrH9n0tD4ADMCoQqAx5obcyHXFgn9xC1LkcYHsNSJ0TFuADQuYfn4/fnx31k/GZ+s+dfG1uaFbzAOr7WwSwwC30bBzz3sFuJ1aJUcQDsDiY/+no9PmATvKAvL1dGvFrE0r9MPe8Owm0XzEPgHptMAdI7Qz2fZXYGgCTGrBayGqyCoIu4gFYGspPBLEAHBHqb7WgwM5eZn9OmVcFm/+pCYB5adbyAUdhXZ802W3YBKAQlIcErBPhBxLHTckBttYAYoBELaj7UwtqQ95fZ3/A9NPh8QelXqzAgBcAK/mAhsmPE2Bg9CKUEvaIOu21ozTAhSvAA8TxsfzPyX5dD5h9kpeab8Tyn7D6DHD+k0qAs/bntTxAiw9ANrRHlaBHpA4AemJCVMN/kqquttUAkKgG2zwg4gHOIL7OS9VHiz6DUm5wXs8HHEdS29aziwWwo7yQEFUwLfdEuUodOUAcTXYQkDYBs3wAhl+QFwIQAdJSC7izjjZ8NqvlAHJjB8gLrEJE1gz92RLQYx8m2okeyQYP1cYaAC5oAOXg9n5MdPx0cBrs7OUOxvyk+jK4N1xJnIfbs8pKsHI9ttJBMJrg6I8vHfncwFh+zhWpauABNtcAuzXUbw3sxQQMj051sKsfAxAr+fnQHw0Qsr3tH8bmz7OKDzjqpL8RT+OjQZsb5qPnYeoL5XZL2UeVj0NmNZg/Km82BfxK+wAlndpfdu7HpZ08TgnATQXGtlnFA7RK/A1wPL3nptdRBP5cCX1v3snwsEitc/+QnDcB+qcEH9h/znVE13m8uWfoZn1aBaRZIQdohXkmOjGBvCM9BAxjAaHPC7URuJ0i9TLDFrcAqT8pzufjk3t7MyM+HmlNGjgk2EdW8uVaxQccW835iPTh2DsD/iU/BReKVEpZgp6K4C88wKYaANCA1OfjW/I8uqwyr7Qwb6e9J1xbOtWA0yDC8G2pB2gVN3InAROgGaL0iXphixCMA1AD3vHToVqIOmgBxpslYbYGqg84m/nPx9tAMOyjAGCsgAfcC+3jfZ/9YzOOqmUQ0qGegTRkAtrgD+zOkcByASPIh365yAE21gCQTgRa/pQg/OP753qAE40r+UnD5Tw9b87i9IV0bW9qMLwv9AAaAkw6oHkgpLtaEIKJDOPnChQJkRxgEepL0ASgAvxBaXyAsg/9Ub9vdUBf6jUYW28hWb9wjgmYlGGZD/iu5l9YxwyIdC8RmjiQIeyjA7HI0NcHqBAcqxVQf2TGAL4UID5AXX/Q9GPjYZ/pb7f5AN5Meb9lX4OAsV3mAyBcbpgWCd+gXLdwDv351YE+PSQH2E0DLjYRIAjAB+iu3njwD+kYAy7YBgyUeXX8SrxIIrwv8gAk/3IzFOHOuYyVcF4z8RkGNIFMwG0kb79XK+Ejb3c4GmB8gNr+z2DQR4evF5nYP1HxmXi/+3tr/gdpyAOyPQCcc+EKNAhQU6Ci8QXoSFQFeiNTHz5We2sABkATQffnZP+JJ/z+MI/wyyv4N3Cvhnu4B/PcC/MA4RemBZOobLqsMFEmXu08ASAHWI4mWAvyQQC1oJjdx+S7DX8JJUgZfaVfX2hzgvzFPuBoOCcWENxnPAqgVWNj8zEDNBiByP4RhO/VimjCCwKCL3lAdw4Dhw/xLujH7vM7Ef9Zegw+JkAvfMCSHIBGHiQTIHY4fn62hSGnHZlWoD1We2sA+4L8+QD+jFQm74yMIvhYHwyTBcDe0w2TPvDriIU5gADmTSLoA4QO2o2GkBqGswK4xw5U6+IQywR9KaBTHxA42iGPW+XHAjDdmfvgLCQT/GsEYD3/QPe+xAOgAnDPC9glKID229AQbkdIAS0gBwA7LAxQDXYWYLYPYL7DOFu97AXhRpr4Vt6Z7tpiFIaRe+nwAZk5ADCVoKRnoCxAacg/+p4mag+O1Us0gCDAlwJEAX7+E6j5JCI+rsGF/dIMlPoo9Q70OH0ZiDBiiQ9onwLjQB5IqKcDGjppY3khqMB+GnDx3452pQCpBc3b14fzd5v6TYsHwNifhH9DP1Ef4+E2VGT6gONT5rEDlnvsgAv9IR/K40uG36sNUEe+FnOJ+gC/0IcFIOSfBujAXcDNTz1xntzIMuN1DL7le4A0+557/IKio1YwtqjFlz1kiDNADrC/BqACFAP9esDp+VF+uZVuLu/xGUC6mnoNAPH2THxdDnTI8wDX9jFgnK4zvkDJJ0NExhj4Lea7egBQXyKHRFGBtuXTwc+KPqiA1QQz5RmLOBDrE/NjAij/qQqIYPG+ogeAfUQ6rxvwq6/V6PMLYATAVjkAS0OhnWHCPuXgf3t8AMDmwzoNl5/4VPk16vMOn146nAAA31bzAACu08UhetyBilYFKBToE8gBdtQAMkGcAIcE8QHpfR5eBbigHVDz5dKXVH5QCBQgjSqOCPNpTWCl2GYDZhURvtEBPEPAA2y/NHQhBkh/NRAfwOp+wu5/DQHY2Hs79QlgH87HAUPl3Vn+5T6gnjf5keXhEpALsn9Qeu/+RfblYjqXA+yvAQAfwOZg8oCrnf7pyE9EyJfWgogfwv2sJ++X38j6k3iLl0cTdD8c8Qar71eNMQjS2U0kvkxI326eA4AmFAZeBfwpwV65Z4rjCRhS60/F/Ux8tvk4t89IKz9P8L+M7cBxQLRKkI+rV+YxCnTyWOfAD3iA/TUAFaAcnKgF/bTbO0aw3M/MHyj0qyIgM/HlGmRM7u+X+gYm/0NsFQPCezoxVAHmsf+tYT9dESA5JAd4pQZgANKfCiDU87kegZ92CkTy/TOMn++cQz+VXvX/zxB3hjmzH8kVh5X32wj6WTVCCeiIGrADx2pzHGZ9LeaS+m7oz4G8X1uigMFQj8TMF76l8zt+0AIlnak/B/UCBbgGskF5EDECDMwBM0EqL6BUGPAAOywMEAUkPxk2kODBvw/1lXmGVHyJAGCehnuA/I0UYCbz3YyfWSxumff6wLHIkM0/5g05wIs04JI8IEIeoMyn2IdwbhlR1Cfhc/meXvcmirgnVPqv8kgHZpPeMnb7RnxEANfGOEA+HuCVGoAKpNYDehZ5/ObuNPiBKq82qgMycuXAsAXISgOhPQqYRxG0pTbApLe6AuMEBVSBdkE972sxPgroWO233GPnEaQDAxt7sQMUgKHfYFMFANfscJAhgeHUIiGSCgLUgRxgc9RztwcL/RoEtGL4h8QWH6Y7Z3mY9W6D/20NwAd+tyuG/MWAWljH/OdlhbxRGYugHQPr77lwD3gAsOfioDcA/ojQ5ey5lwZ4LVDS9cL1uy1+glHOxFsVhuE+XwnS6iCPjQRYJXbBII4g6QF2XhpCB/ABBAGDEG7o50HAANyL/dPLAQfgdnjfyKcJ4VRXS2vBGIR8MPWtK8AWTEO/lUifpgKv0QBbCPDfC2qd72e200sZUKo91PimR1d1IZ4L3rOQEwir/ZcL9ukyIkJ6isV4BnpCgVHGPdTVvkjbAL8xjDzg9wP6tWPWk+/7BX9Yp+6zBHnfivpwXCOCa8ALJINBufmZl0x7IoOPam98PDoh8vWTYQPMA8jn401UfLTyrwNT95UXa6DOyoXhl0hAB9dgJMCYrksuHNtCMON0CLj/wsCDE0IXTvGeLfm6pXf6Qat87O3D40uvs34d+s9N/rkAjL+3BQjXiBbAeTo35GVnN5SxE2BXNOmvhegBAbMkONwPdifAaS6mf3KTl1zwf9rbAIBaJ7v0TkTKDAow+OiFKQqJwEISEcC+aB6tCAk0EfxxGmGq/sjG6Rvy9bbNetafHDDfCaAHuIEAujllY2sSqA9RBjhUr8EhmQr4Q4Jjy7kOD5Z5/Dcc5EEdBsc8Eti+CAQaJZwHY8BvmWYgaRRcYkCw0FSvwjEZBHgT8HtIhvwSAKAEIgrXOsTqq+eH+XVQLcB3qHeunz7KP4ZfyaYxB4xMMBAIADbWgMuf2+QBghvLeAG/zJPY3IsRwOsbz/+yDAA03uRfE4FBZoEA908D7zqW7qX8owHsDnfFoNv8T3/Fx5zo4nynDs0pL4p9L+YfHLD9pASmAbwOBgW88HuJ5Qr4/52Kgv6LURd3kld69vWgBfZ0h96E/gav8/8+EoRWZIGLDuLoEID3DhQAXofGsD+lgWoCfpx81X8wBX/O8o4CMZ+r+igQXxT/exyUXzUA3OlAECm+o5TJf38XmP57GQFjAH4M/jvtgnPiA06ecxmubPfBt7US5/oA7dI8MvbYgmsgA6BzOtAd6urFQAVSS0I/Buv8p0Oc2H0SP7O1AxnqT38f/ejAR4rqjfFxOFZ/FY6NsQDCfhIc1pOOVh7udRM/0LxvMgWOe6Kuq78Stf43vDXNeDfS7Yb35/hb/+MKCgoKCgoKCgoKCgoKCgoKCgoKCgoKCgoKCgoKCgoKCgoKCgoKCgoKCgoKCgoKCgoKCgoKCgoKCgoKCgoKCgoKCgoKCgoKCgoKCgrm4T/FILn3RjdPbAAAAABJRU5ErkJggg==;" vertex="1" parent="1">
          <mxGeometry x="200" y="110" width="62" height="62" as="geometry" />
        </mxCell>
      </root>
    </mxGraphModel>
  </diagram>
</mxfile>
